<?xml version="1.0" encoding="UTF-8"?>
<svg version="1.1" xmlns="http://www.w3.org/2000/svg" width="77" height="78">
<path d="M0 0 C4.88057553 4.09807003 8.62174867 8.44285157 11.42578125 14.171875 C11.74417969 14.81253906 12.06257813 15.45320313 12.390625 16.11328125 C15.99180371 24.85900097 15.76809124 36.20713404 12.86328125 45.109375 C8.44191589 55.44140773 0.91940849 62.87156654 -9.26171875 67.484375 C-20.40672088 71.54641253 -31.58788049 70.85611701 -42.30078125 65.9140625 C-52.38335002 60.33971179 -57.64527099 52.49424439 -61.82421875 42.046875 C-64.22740839 29.63039517 -62.39539424 19.17297407 -55.88671875 8.421875 C-49.7398106 -0.18995873 -40.93149858 -5.29166496 -30.65625 -7.4375 C-19.63627699 -8.83420127 -9.07353967 -6.44372772 0 0 Z " fill="#F7F9F6" transform="translate(62.57421875,7.828125)"/>
<path d="M0 0 C6.54678946 6.72372972 9.69197023 14.10881344 9.59375 23.390625 C8.89099913 30.84759254 5.62246265 37.18852485 0.3125 42.375 C-7.22995974 47.72200198 -14.60935159 49.20263746 -23.6875 48.375 C-31.03339331 46.73689139 -37.33855424 42.79084052 -41.5 36.5 C-45.47008213 29.52623731 -46.88070456 22.54051847 -45.0703125 14.703125 C-42.47929971 6.40271234 -37.96523428 1.45894797 -31 -3.5625 C-20.32570747 -8.46690468 -9.51762074 -5.75484045 0 0 Z " fill="#ED2026" transform="translate(56.6875,17.625)"/>
<path d="M0 0 C4.88057553 4.09807003 8.62174867 8.44285157 11.42578125 14.171875 C11.74417969 14.81253906 12.06257813 15.45320313 12.390625 16.11328125 C15.99180371 24.85900097 15.76809124 36.20713404 12.86328125 45.109375 C8.44191589 55.44140773 0.91940849 62.87156654 -9.26171875 67.484375 C-20.40672088 71.54641253 -31.58788049 70.85611701 -42.30078125 65.9140625 C-52.38335002 60.33971179 -57.64527099 52.49424439 -61.82421875 42.046875 C-64.22740839 29.63039517 -62.39539424 19.17297407 -55.88671875 8.421875 C-49.7398106 -0.18995873 -40.93149858 -5.29166496 -30.65625 -7.4375 C-19.63627699 -8.83420127 -9.07353967 -6.44372772 0 0 Z M-28.57421875 -3.828125 C-26.09921875 -3.333125 -26.09921875 -3.333125 -23.57421875 -2.828125 C-23.90421875 -2.168125 -24.23421875 -1.508125 -24.57421875 -0.828125 C-25.23421875 -0.828125 -25.89421875 -0.828125 -26.57421875 -0.828125 C-26.57421875 0.491875 -26.57421875 1.811875 -26.57421875 3.171875 C-27.48300781 3.34009766 -27.48300781 3.34009766 -28.41015625 3.51171875 C-36.861938 5.50113815 -43.21984126 10.12703287 -48.0546875 17.3984375 C-50.793628 22.67856106 -51.70664974 27.047672 -51.63671875 32.921875 C-51.62318359 34.39914063 -51.62318359 34.39914063 -51.609375 35.90625 C-51.59777344 36.65390625 -51.58617187 37.4015625 -51.57421875 38.171875 C-52.1878125 37.99785156 -52.80140625 37.82382812 -53.43359375 37.64453125 C-55.84619855 37.11182107 -57.24948753 37.42463996 -59.57421875 38.171875 C-58.9888523 47.3426161 -54.39395753 54.14512003 -47.82421875 60.37890625 C-38.62887182 67.70644833 -29.02104802 68.92047858 -17.57421875 68.171875 C-8.09599768 66.33970746 0.46869762 60.70881779 6.42578125 53.171875 C12.62470673 42.79227885 13.94836518 32.32028185 11.96484375 20.40234375 C9.14644811 10.93585015 1.66654019 2.61577207 -6.91015625 -2.1171875 C-12.76503033 -4.82093334 -23.33445436 -9.06788939 -28.57421875 -3.828125 Z " fill="#EEF6EF" transform="translate(62.57421875,7.828125)"/>
<path d="M0 0 C4.21712557 -0.36146791 6.71110421 0.27491491 10 3 C10.3125 5.6875 10.3125 5.6875 10 8 C12.31 8 14.62 8 17 8 C17 7.34 17 6.68 17 6 C23.52307692 5.63076923 23.52307692 5.63076923 25.9375 7.5 C26.288125 7.995 26.63875 8.49 27 9 C26.34 9 25.68 9 25 9 C24.9071875 9.8971875 24.9071875 9.8971875 24.8125 10.8125 C23.6763243 13.87143458 21.82669858 14.55041099 19 16 C19.33 17.65 19.66 19.3 20 21 C20.66 21 21.32 21 22 21 C22.33 19.68 22.66 18.36 23 17 C23.99 17.33 24.98 17.66 26 18 C28.28020848 23.64051572 28.21802745 28.98001986 28 35 C26.02 35.495 26.02 35.495 24 36 C23.89042969 35.37351563 23.78085937 34.74703125 23.66796875 34.1015625 C23.50941406 33.28429688 23.35085937 32.46703125 23.1875 31.625 C23.03667969 30.81289063 22.88585937 30.00078125 22.73046875 29.1640625 C22.12455058 26.64179359 22.12455058 26.64179359 19 25 C18.67 26.32 18.34 27.64 18 29 C17.360625 29.12375 16.72125 29.2475 16.0625 29.375 C15.381875 29.58125 14.70125 29.7875 14 30 C13.67 30.66 13.34 31.32 13 32 C10.36 32 7.72 32 5 32 C1.55580866 20.47835991 1.55580866 20.47835991 2 15 C1.01 14.67 0.02 14.34 -1 14 C-0.6875 12.0625 -0.6875 12.0625 0 10 C0.99 9.67 1.98 9.34 3 9 C3 8.01 3 7.02 3 6 C1.68 5.67 0.36 5.34 -1 5 C-0.67 3.35 -0.34 1.7 0 0 Z " fill="#FEC306" transform="translate(26,20)"/>
<path d="M0 0 C10.09037734 0.31019243 18.57742549 4.51040808 25.734375 11.4921875 C33.37516651 19.77435932 35.69236256 26.44683071 35.5625 37.625 C35.55798828 38.36556641 35.55347656 39.10613281 35.54882812 39.86914062 C35.53712175 41.68362899 35.51918898 43.49807534 35.5 45.3125 C33.52 45.8075 33.52 45.8075 31.5 46.3125 C31.83 45.3225 32.16 44.3325 32.5 43.3125 C30.52 43.3125 28.54 43.3125 26.5 43.3125 C26.48582031 42.56226563 26.47164062 41.81203125 26.45703125 41.0390625 C26.0361583 32.00735643 23.91078853 25.44134927 18.125 18.4375 C11.3664335 12.9662795 4.91792981 11.13707592 -3.5 9.3125 C-3.5 7.9925 -3.5 6.6725 -3.5 5.3125 C-2.51 5.3125 -1.52 5.3125 -0.5 5.3125 C-0.5 4.6525 -0.5 3.9925 -0.5 3.3125 C-2.15 2.9825 -3.8 2.6525 -5.5 2.3125 C-3.5 0.3125 -3.5 0.3125 0 0 Z " fill="#FAFCFA" transform="translate(39.5,1.6875)"/>
<path d="M0 0 C4.88057553 4.09807003 8.62174867 8.44285157 11.42578125 14.171875 C11.74417969 14.81253906 12.06257813 15.45320313 12.390625 16.11328125 C15.99180371 24.85900097 15.76809124 36.20713404 12.86328125 45.109375 C8.44191589 55.44140773 0.91940849 62.87156654 -9.26171875 67.484375 C-20.40672088 71.54641253 -31.58788049 70.85611701 -42.30078125 65.9140625 C-52.38335002 60.33971179 -57.64527099 52.49424439 -61.82421875 42.046875 C-64.22740839 29.63039517 -62.39539424 19.17297407 -55.88671875 8.421875 C-49.7398106 -0.18995873 -40.93149858 -5.29166496 -30.65625 -7.4375 C-19.63627699 -8.83420127 -9.07353967 -6.44372772 0 0 Z M-53.57421875 8.171875 C-60.84390142 17.42575341 -61.49691903 27.77315077 -60.57421875 39.171875 C-58.11488513 49.07259437 -51.85151561 58.3564555 -43.07421875 63.69140625 C-33.67994104 68.54232048 -23.07992287 70.1605874 -12.76171875 66.984375 C-1.95888251 62.73828763 5.50345519 55.96881886 10.48046875 45.50390625 C13.93607612 36.97912279 13.93929095 24.62701965 10.4609375 16.1171875 C5.2079746 6.24558174 -2.91967131 -1.27023304 -13.57421875 -4.828125 C-29.57159483 -8.6967715 -42.641719 -3.80372564 -53.57421875 8.171875 Z " fill="#459F53" transform="translate(62.57421875,7.828125)"/>
<path d="M0 0 C7.67642956 6.44566317 12.83123343 14.15109282 14.42578125 24.171875 C14.3738993 27.89322587 14.00554224 31.49772701 13.42578125 35.171875 C13.09578125 35.171875 12.76578125 35.171875 12.42578125 35.171875 C12.31363281 33.50511719 12.31363281 33.50511719 12.19921875 31.8046875 C11.23023035 19.98940924 8.92021017 12.2188857 0.11328125 3.796875 C-8.35512109 -3.27202746 -17.23221823 -5.29505446 -28.09765625 -5.16015625 C-38.55062446 -4.16183906 -46.77065414 1.40707282 -53.57421875 9.171875 C-59.30081873 16.90615357 -59.802317 25.88601216 -60.57421875 35.171875 C-60.90421875 35.171875 -61.23421875 35.171875 -61.57421875 35.171875 C-63.41957991 24.80174759 -61.30557241 17.35238801 -55.88671875 8.421875 C-49.7398106 -0.18995873 -40.93149858 -5.29166496 -30.65625 -7.4375 C-19.63627699 -8.83420127 -9.07353967 -6.44372772 0 0 Z " fill="#50A55D" transform="translate(62.57421875,7.828125)"/>
<path d="M0 0 C10.01025998 0.62029389 10.01025998 0.62029389 13 4 C13 4.99 13 5.98 13 7 C13.66 6.34 14.32 5.68 15 5 C20.5820809 7.96192048 23.15520496 11.45174272 25.9375 17.0625 C26.24373291 17.67625488 26.54996582 18.29000977 26.86547852 18.92236328 C28.44051323 22.26076685 29 24.23297535 29 28 C27.68 27.67 26.36 27.34 25 27 C25 25.33333333 25 23.66666667 25 22 C23.68 22 22.36 22 21 22 C19.76171875 20.42578125 19.76171875 20.42578125 18.6875 18.3125 C16.10627972 13.79736237 13.3811205 11.75848328 9 9 C8.01 8.34 7.02 7.68 6 7 C6 6.34 6 5.68 6 5 C5.195625 4.731875 4.39125 4.46375 3.5625 4.1875 C2.716875 3.795625 1.87125 3.40375 1 3 C0.67 2.01 0.34 1.02 0 0 Z " fill="#C9E0CA" transform="translate(42,6)"/>
<path d="M0 0 C0 1.65 0 3.3 0 5 C1.98 5 3.96 5 6 5 C6 5.33 6 5.66 6 6 C5.0821875 6.07476563 4.164375 6.14953125 3.21875 6.2265625 C-4.95346003 7.10215643 -9.99174215 8.40463191 -16 14 C-17.32373055 15.01267725 -18.65477878 16.01604998 -20 17 C-20 16.01 -20 15.02 -20 14 C-20.99 15.98 -21.98 17.96 -23 20 C-24.32 19.67 -25.64 19.34 -27 19 C-25.96931111 13.14203404 -21.55436221 8.92663615 -16.93359375 5.44140625 C-11.30898613 1.84464578 -6.81058 -0.31677116 0 0 Z " fill="#F4ECE8" transform="translate(36,6)"/>
<path d="M0 0 C2.3431213 0.25561323 4.67843403 0.59270772 7 1 C8.06006299 3.12012598 8.68625304 4.64480612 9 7 C8.07421875 9.54296875 8.07421875 9.54296875 6.6875 12.1875 C6.23761719 13.06792969 5.78773437 13.94835938 5.32421875 14.85546875 C4 17 4 17 2 18 C0.32345271 17.72057545 -1.34608154 17.39171753 -3 17 C-3 16.01 -3 15.02 -3 14 C-3.99 13.67 -4.98 13.34 -6 13 C-5.65066406 12.39671875 -5.30132812 11.7934375 -4.94140625 11.171875 C-4.25884766 9.97304688 -4.25884766 9.97304688 -3.5625 8.75 C-3.11003906 7.96109375 -2.65757813 7.1721875 -2.19140625 6.359375 C-1.10688398 4.21166532 -0.46851284 2.34794939 0 0 Z " fill="#F9D2D2" transform="translate(65,44)"/>
<path d="M0 0 C2.45886893 3.49973983 4 6.70141159 4 11 C2.0245088 13.469364 -0.13792848 14.71700242 -3 16 C-10.40363128 6.06354749 -10.40363128 6.06354749 -10 -1 C-6.13939277 -2.48484894 -3.62604362 -1.88856439 0 0 Z " fill="#FAE2E2" transform="translate(13,47)"/>
<path d="M0 0 C6.13091874 1.69167943 12.44661956 1.22185512 18.75 1.0625 C18.75 3.0425 18.75 5.0225 18.75 7.0625 C17.76 7.0625 16.77 7.0625 15.75 7.0625 C14.925 7.26875 14.1 7.475 13.25 7.6875 C10.75 8.0625 10.75 8.0625 7.75 6.0625 C7.42 5.7325 7.09 5.4025 6.75 5.0625 C6.75 6.0525 6.75 7.0425 6.75 8.0625 C4.375 8.1875 4.375 8.1875 1.75 8.0625 C-0.25 6.0625 -0.25 6.0625 -1.25 4.0625 C-3.27463255 3.41036708 -3.27463255 3.41036708 -5.25 3.0625 C-5.25 2.0725 -5.25 1.0825 -5.25 0.0625 C-3.25 -0.9375 -3.25 -0.9375 0 0 Z " fill="#E0E4D8" transform="translate(28.25,63.9375)"/>
<path d="M0 0 C-0.33 1.32 -0.66 2.64 -1 4 C-1.99 3.67 -2.98 3.34 -4 3 C-4.99 3 -5.98 3 -7 3 C-7.66 4.32 -8.32 5.64 -9 7 C-10.65 6.67 -12.3 6.34 -14 6 C-14.33 6.99 -14.66 7.98 -15 9 C-15 8.34 -15 7.68 -15 7 C-15.99 6.67 -16.98 6.34 -18 6 C-16.13308826 4.98498002 -14.25604656 3.98857921 -12.375 3 C-11.33085937 2.443125 -10.28671875 1.88625 -9.2109375 1.3125 C-5.85853405 -0.0578255 -3.58045064 -0.2580505 0 0 Z " fill="#7ECA92" transform="translate(36,6)"/>
<path d="M0 0 C0.99 0.99 1.98 1.98 3 3 C1.75 4.5 1.75 4.5 0 6 C-1.32 6 -2.64 6 -4 6 C-4 6.66 -4 7.32 -4 8 C-3.34 8 -2.68 8 -2 8 C-2.66 9.65 -3.32 11.3 -4 13 C-5.32 12.67 -6.64 12.34 -8 12 C-7.41463247 8.33939179 -5.916761 6.45464836 -3.4375 3.75 C-2.79683594 3.04359375 -2.15617188 2.3371875 -1.49609375 1.609375 C-0.75552734 0.81273437 -0.75552734 0.81273437 0 0 Z " fill="#8CD09E" transform="translate(17,13)"/>
<path d="M0 0 C4.29 0.33 8.58 0.66 13 1 C13.33 1.99 13.66 2.98 14 4 C11.6875 4.625 11.6875 4.625 9 5 C6 3 6 3 5 2 C5 2.99 5 3.98 5 5 C3.35 5 1.7 5 0 5 C-0.33 4.01 -0.66 3.02 -1 2 C0.32 1.67 1.64 1.34 3 1 C2.01 0.67 1.02 0.34 0 0 Z " fill="#6BBB7B" transform="translate(30,67)"/>
<path d="M0 0 C9.88344059 0.61243542 9.88344059 0.61243542 13 4 C13 4.66 13 5.32 13 6 C10.60042386 6.84119973 9.35077442 7.11193544 6.89453125 6.328125 C6.20746094 5.97234375 5.52039062 5.6165625 4.8125 5.25 C4.11769531 4.90453125 3.42289063 4.5590625 2.70703125 4.203125 C1 3 1 3 0 0 Z " fill="#99D5A9" transform="translate(42,6)"/>
<path d="M0 0 C0.66 0 1.32 0 2 0 C1.32584613 5.2584002 -0.24265549 10.02638346 -2 15 C-4.475 14.01 -4.475 14.01 -7 13 C-6.484375 12.236875 -5.96875 11.47375 -5.4375 10.6875 C-4.7259375 9.3571875 -4.7259375 9.3571875 -4 8 C-4.33 7.01 -4.66 6.02 -5 5 C-4.01 5 -3.02 5 -2 5 C-0.55245745 3.55245745 -0.44266439 1.96037087 0 0 Z " fill="#F6F3F0" transform="translate(14,20)"/>
<path d="M0 0 C2.31 0 4.62 0 7 0 C7.33 0.66 7.66 1.32 8 2 C11.02934491 2.65772428 11.02934491 2.65772428 14 3 C14 3.33 14 3.66 14 4 C9.05 4.66 4.1 5.32 -1 6 C-0.67 4.02 -0.34 2.04 0 0 Z " fill="#E7E6DD" transform="translate(28,8)"/>
<path d="M0 0 C0.99 0.33 1.98 0.66 3 1 C-6.22551253 10 -6.22551253 10 -12 10 C-11.42378906 9.58234375 -10.84757812 9.1646875 -10.25390625 8.734375 C-7.28944384 6.45322888 -4.62024024 3.89473742 -1.90234375 1.328125 C-1.27457031 0.88984375 -0.64679688 0.4515625 0 0 Z " fill="#4EA45B" transform="translate(66,63)"/>
<path d="M0 0 C0 1.98 0 3.96 0 6 C-3.63 4.68 -7.26 3.36 -11 2 C-11 1.67 -11 1.34 -11 1 C-3.375 0 -3.375 0 0 0 Z " fill="#C2CFB7" transform="translate(47,65)"/>
<path d="M0 0 C0.99 0.99 1.98 1.98 3 3 C2.649375 3.61875 2.29875 4.2375 1.9375 4.875 C1.4734375 5.926875 1.4734375 5.926875 1 7 C1.33 7.66 1.66 8.32 2 9 C0.35 9 -1.3 9 -3 9 C-2.01 6.03 -1.02 3.06 0 0 Z " fill="#8DD09E" transform="translate(8,25)"/>
<path d="M0 0 C2.5 1.3125 2.5 1.3125 5 3 C5 3.99 5 4.98 5 6 C2 6 2 6 0 5 C-0.99 4.67 -1.98 4.34 -3 4 C-2 2 -2 2 0 0 Z " fill="#8DD09F" transform="translate(56,11)"/>
<path d="M0 0 C0.66 0.33 1.32 0.66 2 1 C2 2.32 2 3.64 2 5 C0.125 6.0625 0.125 6.0625 -2 7 C-2.66 6.67 -3.32 6.34 -4 6 C-4 4.68 -4 3.36 -4 2 C-2.125 0.9375 -2.125 0.9375 0 0 Z " fill="#78C187" transform="translate(52,64)"/>
<path d="M0 0 C0.928125 0.20625 1.85625 0.4125 2.8125 0.625 C2.8125 1.285 2.8125 1.945 2.8125 2.625 C1.1625 2.295 -0.4875 1.965 -2.1875 1.625 C-2.5175 2.615 -2.8475 3.605 -3.1875 4.625 C-3.1875 3.965 -3.1875 3.305 -3.1875 2.625 C-4.1775 2.295 -5.1675 1.965 -6.1875 1.625 C-3.1875 -0.375 -3.1875 -0.375 0 0 Z " fill="#95D3A6" transform="translate(24.1875,10.375)"/>
<path d="M0 0 C2.125 0.9375 2.125 0.9375 4 2 C3.01 3.485 3.01 3.485 2 5 C1.01 5 0.02 5 -1 5 C-1.33 3.68 -1.66 2.36 -2 1 C-1.34 0.67 -0.68 0.34 0 0 Z " fill="#F1575D" transform="translate(7,45)"/>
<path d="M0 0 C0.66 0 1.32 0 2 0 C2.66 1.65 3.32 3.3 4 5 C2.68 5.33 1.36 5.66 0 6 C0 5.34 0 4.68 0 4 C-0.66 3.67 -1.32 3.34 -2 3 C-1.34 2.01 -0.68 1.02 0 0 Z " fill="#86CD99" transform="translate(62,16)"/>
<path d="M0 0 C0.99 0.99 1.98 1.98 3 3 C1.68 3.99 0.36 4.98 -1 6 C-1.66 5.01 -2.32 4.02 -3 3 C-2.01 2.01 -1.02 1.02 0 0 Z " fill="#70C486" transform="translate(17,13)"/>
<path d="M0 0 C2.31 0.33 4.62 0.66 7 1 C6.67 2.32 6.34 3.64 6 5 C3.5625 4.1875 3.5625 4.1875 1 3 C0.67 2.01 0.34 1.02 0 0 Z " fill="#71C487" transform="translate(42,6)"/>
<path d="M0 0 C1.98 0.66 3.96 1.32 6 2 C5.34 3.32 4.68 4.64 4 6 C4 5.34 4 4.68 4 4 C2.68 3.67 1.36 3.34 0 3 C0 2.01 0 1.02 0 0 Z " fill="#64B875" transform="translate(23,64)"/>
</svg>
