<?xml version="1.0" encoding="UTF-8"?>
<svg version="1.1" xmlns="http://www.w3.org/2000/svg" width="235" height="215">
<path d="M0 0 C77.55 0 155.1 0 235 0 C235 70.95 235 141.9 235 215 C157.45 215 79.9 215 0 215 C0 144.05 0 73.1 0 0 Z " fill="#FCFCFC" transform="translate(0,0)"/>
<path d="M0 0 C-0.4640625 1.36125 -0.4640625 1.36125 -0.9375 2.75 C-1.71824855 5.13817205 -2.39061584 7.56246334 -3 10 C4.425 10.99 4.425 10.99 12 12 C13.65 8.04 15.3 4.08 17 0 C17.495 1.485 17.495 1.485 18 3 C25.03133939 5.06090982 32.32827408 5.78258779 39.58349609 6.69384766 C43.47760892 7.18720161 47.3692146 7.69963805 51.26123047 8.20922852 C55.84049523 8.8086511 60.42024616 9.4043276 65 10 C65.97151623 35.0062076 66.11918269 59.97713529 66 85 C55.98878159 89.38045019 45.75523065 92.98430403 35.4375 96.5625 C32.99846283 97.41184002 30.55978894 98.26219201 28.12173462 99.11434937 C26.54804024 99.66221617 24.97283168 100.20575433 23.39608765 100.74478149 C20.16645535 101.85444468 17.02121427 102.99070064 13.89111328 104.36279297 C6.8647117 107.42920976 1.59917346 106.99873509 -5.84289551 105.44763184 C-8.2478916 104.94855874 -10.65912377 104.49288958 -13.07324219 104.04003906 C-17.85672685 103.1339333 -22.63092675 102.18630447 -27.40332031 101.22363281 C-30.36151316 100.62771687 -33.32125591 100.04002038 -36.28125 99.453125 C-47.26944835 97.25824013 -58.16369042 94.85433755 -69 92 C-69.19612198 75.94251314 -68.58558875 59.91973873 -68 43.875 C-67.90299585 41.16278339 -67.8069554 38.45053293 -67.7109375 35.73828125 C-67.47728632 29.15873168 -67.24007954 22.57931798 -67 16 C-66.28718872 15.71899948 -65.57437744 15.43799896 -64.83996582 15.14848328 C-61.56892715 13.85657424 -58.30008641 12.55918939 -55.03125 11.26171875 C-53.91008789 10.81985229 -52.78892578 10.37798584 -51.63378906 9.92272949 C-46.07326596 7.71134283 -40.6090151 5.4446435 -35.28538513 2.70680237 C-24.10997355 -2.89097979 -12.09212999 -1.21139964 0 0 Z " fill="#F10222" transform="translate(118,39)"/>
<path d="M0 0 C16.31040892 -1.08736059 16.31040892 -1.08736059 20.3671875 1.5234375 C21.40705277 2.79093497 22.40976416 4.08991942 23.37109375 5.41796875 C24.93670664 7.26012072 24.93670664 7.26012072 27.59765625 7.30078125 C29.03431641 7.27564453 29.03431641 7.27564453 30.5 7.25 C33.3671875 7.296875 33.3671875 7.296875 36 8 C38.14577832 10.70592126 39.63169078 13.51259346 41.25 16.55859375 C42.74218871 19.18683134 42.74218871 19.18683134 45.25 19.59765625 C46.80350388 19.5746603 48.3569269 19.5449838 49.91015625 19.5078125 C52 20 52 20 53.68359375 22.1796875 C57 28.8125 57 28.8125 57 32 C60.96 32 64.92 32 69 32 C69.99 36.62 70.98 41.24 72 46 C75.63 46.33 79.26 46.66 83 47 C83.33 53.93 83.66 60.86 84 68 C86.31 68.99 88.62 69.98 91 71 C90.39891424 76.65020618 88.92471317 81.66164461 87 87 C87.59296875 87.28617187 88.1859375 87.57234375 88.796875 87.8671875 C91.68927448 89.35441418 94.31524704 91.16948662 97 93 C95.55049595 97.35647645 93.32252888 100.31757289 90.375 103.8125 C89.14910156 105.27623047 89.14910156 105.27623047 87.8984375 106.76953125 C87.27195313 107.50558594 86.64546875 108.24164063 86 109 C87.72154788 112.76488042 89.99234114 115.15063897 93 118 C91.46518706 121.80668295 89.13477919 123.8962489 86.0625 126.5625 C81.92587532 130.16935634 81.92587532 130.16935634 78 134 C79.20689255 137.10343799 80.50596946 140.01193893 82 143 C75.4 146.96 68.8 150.92 62 155 C63.72531936 159.81115706 63.72531936 159.81115706 66 163 C66 163.99 66 164.98 66 166 C64.78884521 166.31022095 64.78884521 166.31022095 63.55322266 166.62670898 C60.55975234 167.3945917 57.56681255 168.16450004 54.57421875 168.93579102 C52.64102868 169.43337438 50.70723512 169.92861119 48.7734375 170.42382812 C47.56171875 170.73642578 46.35 171.04902344 45.1015625 171.37109375 C43.98088379 171.65911865 42.86020508 171.94714355 41.70556641 172.24389648 C39.05984994 172.89091837 39.05984994 172.89091837 37 174 C41.01667289 174.63786786 44.92854312 175.15869926 49 175 C51.26877535 172.58119071 51.26877535 172.58119071 53 170 C60.65584156 170.28942816 68.11495789 172.66745617 75.5 174.5625 C76.81238839 174.8956223 78.12488763 175.22830821 79.4375 175.56054688 C82.62611395 176.36942321 85.81353948 177.18268943 89 178 C87.91720359 181.24838923 87.10963155 182.04282583 84.5625 184.1875 C83.94503906 184.71730469 83.32757813 185.24710938 82.69140625 185.79296875 C81 187 81 187 79 187 C79.2165625 188.03640625 79.433125 189.0728125 79.65625 190.140625 C79.93770537 191.51037448 80.218944 192.88016851 80.5 194.25 C80.64308594 194.93191406 80.78617188 195.61382812 80.93359375 196.31640625 C81.61251049 199.64633121 82 202.58332551 82 206 C75.69071903 205.37869771 70.03792431 203.50010374 64.0625 201.4375 C63.09248047 201.10814453 62.12246094 200.77878906 61.12304688 200.43945312 C58.74683102 199.63177385 56.37315216 198.81663727 54 198 C53.01 202.62 52.02 207.24 51 212 C6.78 212 -37.44 212 -83 212 C-85 202 -85 202 -85 197 C-98.08256075 200.74108796 -98.08256075 200.74108796 -110.8984375 205.30078125 C-113 206 -113 206 -116 206 C-115.87625 205.071875 -115.7525 204.14375 -115.625 203.1875 C-115.54507813 202.55199219 -115.46515625 201.91648438 -115.3828125 201.26171875 C-115 199 -115 199 -114.2421875 196.33203125 C-113.48373535 193.4379375 -112.94271807 190.99628551 -113 188 C-114.52350821 185.64432344 -116.10142381 184.1658752 -118.30078125 182.4375 C-120 181 -120 181 -121 178 C-92.29882504 169.39644874 -92.29882504 169.39644874 -87 170 C-85.7315625 171.5159375 -85.7315625 171.5159375 -84.4375 173.0625 C-82.38695708 175.29044688 -81.561863 175.97292688 -78.49194336 176.12084961 C-77.53425049 176.00749268 -76.57655762 175.89413574 -75.58984375 175.77734375 C-74.5222583 175.65931396 -73.45467285 175.54128418 -72.35473633 175.41967773 C-71.24767334 175.28118408 -70.14061035 175.14269043 -69 175 C-67.94772217 174.88148682 -66.89544434 174.76297363 -65.8112793 174.64086914 C-61.50013273 174.15309597 -57.19350585 173.63017984 -52.88671875 173.10546875 C-39.04557117 171.46048242 -25.34253083 170.81341839 -11.41552734 170.81469727 C-8.76773896 170.81251462 -6.12037129 170.79429235 -3.47265625 170.77539062 C25.36258266 170.68129133 25.36258266 170.68129133 32 174 C27.545 167.07 27.545 167.07 23 160 C25.81512001 157.18487999 27.11506853 156.33745745 30.66796875 154.95703125 C31.56064453 154.60576172 32.45332031 154.25449219 33.37304688 153.89257812 C34.30181641 153.53615234 35.23058594 153.17972656 36.1875 152.8125 C37.12787109 152.44447266 38.06824219 152.07644531 39.03710938 151.69726562 C41.35543127 150.7911195 43.67634016 149.89234882 46 149 C46 145.79604584 45.25664978 143.90600261 44 141 C44.47945068 140.70754395 44.95890137 140.41508789 45.45288086 140.11376953 C47.617626 138.78933742 49.77758084 137.45728658 51.9375 136.125 C52.69224609 135.66480469 53.44699219 135.20460937 54.22460938 134.73046875 C55.30258789 134.06337891 55.30258789 134.06337891 56.40234375 133.3828125 C57.39995728 132.77010498 57.39995728 132.77010498 58.41772461 132.14501953 C60.1563403 131.07267006 60.1563403 131.07267006 61 129 C60.01 128.34 59.02 127.68 58 127 C59.64696696 122.68452961 62.85762051 119.99076095 66.125 116.875 C68.13783491 114.95428568 70.07832212 113.01570493 72 111 C72 110.34 72 109.68 72 109 C70.37373596 107.61767557 68.7074998 106.28062485 67 105 C68.75414765 101.21205797 71.09390674 98.17133151 73.66015625 94.90234375 C75.18085277 92.9370042 75.18085277 92.9370042 76 90 C73.03 89.01 73.03 89.01 70 88 C72.0589455 81.54239821 74.4370629 75.27477704 77 69 C73.04 69 69.08 69 65 69 C65 64.38 65 59.76 65 55 C61.7 55 58.4 55 55 55 C54.66223316 53.2508503 54.32996329 51.50063855 54 49.75 C53.814375 48.77546875 53.62875 47.8009375 53.4375 46.796875 C53 44 53 44 53 40 C49.37 40 45.74 40 42 40 C39 31.375 39 31.375 39 28 C36.03 28 33.06 28 30 28 C28.02 24.04 26.04 20.08 24 16 C21.03 16.66 18.06 17.32 15 18 C13.43265142 16.3170024 11.87136599 14.62835757 10.3125 12.9375 C9.00732422 11.52791016 9.00732422 11.52791016 7.67578125 10.08984375 C4.83292258 6.91400936 2.42618027 3.50156828 0 0 Z " fill="#07804E" transform="translate(135,3)"/>
<path d="M0 0 C5.73171345 0.51796311 11.36993891 1.14837537 17.02734375 2.234375 C18.31705078 2.47929688 19.60675781 2.72421875 20.93554688 2.9765625 C22.26956805 3.23418449 23.6035527 3.49199575 24.9375 3.75 C39.61556923 6.5544385 54.30540758 9.27877918 69 12 C69 36.75 69 61.5 69 87 C58.8907477 85.87674974 58.8907477 85.87674974 55.13671875 85.0546875 C54.2667627 84.8680957 53.39680664 84.68150391 52.50048828 84.48925781 C51.57220215 84.28655273 50.64391602 84.08384766 49.6875 83.875 C41.9710599 82.22352941 34.24434546 80.64274762 26.49609375 79.1484375 C25.68111923 78.99120209 24.86614471 78.83396667 24.026474 78.67196655 C20.74086968 78.03921414 17.45498239 77.40803985 14.1680603 76.78216553 C11.85377303 76.34149139 9.54014517 75.89748085 7.2265625 75.453125 C6.52554916 75.32102631 5.82453583 75.18892761 5.10227966 75.05282593 C0.22627304 74.11313652 0.22627304 74.11313652 -2 73 C-2.05668795 63.56224391 -1.90119228 54.15856549 -1.5625 44.7265625 C-1.51810791 43.43680511 -1.47371582 42.14704773 -1.42797852 40.81820679 C-1.31173167 37.4415738 -1.19263535 34.06504758 -1.07287598 30.6885376 C-0.95045539 27.22210745 -0.83082563 23.755581 -0.7109375 20.2890625 C-0.47663791 13.52594674 -0.23931779 6.76294 0 0 Z " fill="#F10223" transform="translate(53,57)"/>
<path d="M0 0 C16.31040892 -1.08736059 16.31040892 -1.08736059 20.3671875 1.5234375 C21.40705277 2.79093497 22.40976416 4.08991942 23.37109375 5.41796875 C24.93670664 7.26012072 24.93670664 7.26012072 27.59765625 7.30078125 C28.55542969 7.28402344 29.51320312 7.26726563 30.5 7.25 C33.3671875 7.296875 33.3671875 7.296875 36 8 C38.14577832 10.70592126 39.63169078 13.51259346 41.25 16.55859375 C42.74218871 19.18683134 42.74218871 19.18683134 45.25 19.59765625 C46.80350388 19.5746603 48.3569269 19.5449838 49.91015625 19.5078125 C52 20 52 20 53.68359375 22.1796875 C57 28.8125 57 28.8125 57 32 C60.96 32 64.92 32 69 32 C69.99 36.62 70.98 41.24 72 46 C77.445 46.495 77.445 46.495 83 47 C83.495 57.395 83.495 57.395 84 68 C86.31 68.99 88.62 69.98 91 71 C90.39891424 76.65020618 88.92471317 81.66164461 87 87 C87.59296875 87.28617187 88.1859375 87.57234375 88.796875 87.8671875 C91.68927448 89.35441418 94.31524704 91.16948662 97 93 C95.55049595 97.35647645 93.32252888 100.31757289 90.375 103.8125 C89.55773437 104.78832031 88.74046875 105.76414062 87.8984375 106.76953125 C87.27195312 107.50558594 86.64546875 108.24164063 86 109 C87.72154788 112.76488042 89.99234114 115.15063897 93 118 C91.46518706 121.80668295 89.13477919 123.8962489 86.0625 126.5625 C81.92587532 130.16935634 81.92587532 130.16935634 78 134 C79.20689255 137.10343799 80.50596946 140.01193893 82 143 C75.4 146.96 68.8 150.92 62 155 C63.72531936 159.81115706 63.72531936 159.81115706 66 163 C66 163.99 66 164.98 66 166 C65.19256348 166.20157715 64.38512695 166.4031543 63.55322266 166.61083984 C59.90862653 167.5250081 56.26682549 168.44985885 52.625 169.375 C51.35398438 169.69210938 50.08296875 170.00921875 48.7734375 170.3359375 C47.56171875 170.6453125 46.35 170.9546875 45.1015625 171.2734375 C43.98088379 171.55622559 42.86020508 171.83901367 41.70556641 172.13037109 C38.88612865 172.80933143 38.88612865 172.80933143 37 175 C33.375 175.125 33.375 175.125 30 175 C30.66 174.67 31.32 174.34 32 174 C29.03 169.38 26.06 164.76 23 160 C25.81512001 157.18487999 27.11506853 156.33745745 30.66796875 154.95703125 C31.56064453 154.60576172 32.45332031 154.25449219 33.37304688 153.89257812 C34.30181641 153.53615234 35.23058594 153.17972656 36.1875 152.8125 C37.12787109 152.44447266 38.06824219 152.07644531 39.03710938 151.69726562 C41.35543127 150.7911195 43.67634016 149.89234882 46 149 C46 145.79604584 45.25664978 143.90600261 44 141 C44.47945068 140.70754395 44.95890137 140.41508789 45.45288086 140.11376953 C47.617626 138.78933742 49.77758084 137.45728658 51.9375 136.125 C52.69224609 135.66480469 53.44699219 135.20460937 54.22460938 134.73046875 C55.30258789 134.06337891 55.30258789 134.06337891 56.40234375 133.3828125 C57.39995728 132.77010498 57.39995728 132.77010498 58.41772461 132.14501953 C60.1563403 131.07267006 60.1563403 131.07267006 61 129 C60.01 128.34 59.02 127.68 58 127 C59.64696696 122.68452961 62.85762051 119.99076095 66.125 116.875 C68.13783491 114.95428568 70.07832212 113.01570493 72 111 C72 110.34 72 109.68 72 109 C70.37373596 107.61767557 68.7074998 106.28062485 67 105 C68.75414765 101.21205797 71.09390674 98.17133151 73.66015625 94.90234375 C75.18085277 92.9370042 75.18085277 92.9370042 76 90 C74.02 89.34 72.04 88.68 70 88 C72.0589455 81.54239821 74.4370629 75.27477704 77 69 C73.04 69 69.08 69 65 69 C65 64.38 65 59.76 65 55 C61.7 55 58.4 55 55 55 C54.66223316 53.2508503 54.32996329 51.50063855 54 49.75 C53.814375 48.77546875 53.62875 47.8009375 53.4375 46.796875 C53 44 53 44 53 40 C49.37 40 45.74 40 42 40 C39 31.375 39 31.375 39 28 C36.03 28 33.06 28 30 28 C28.02 24.04 26.04 20.08 24 16 C21.03 16.66 18.06 17.32 15 18 C13.43265142 16.3170024 11.87136599 14.62835757 10.3125 12.9375 C9.00732422 11.52791016 9.00732422 11.52791016 7.67578125 10.08984375 C4.83292258 6.91400936 2.42618027 3.50156828 0 0 Z " fill="#067C4C" transform="translate(135,3)"/>
<path d="M0 0 C-1.37263363 3.05160609 -2.95956573 5.24826932 -5.2578125 7.671875 C-6.19560547 8.66767578 -6.19560547 8.66767578 -7.15234375 9.68359375 C-7.80332031 10.36550781 -8.45429687 11.04742187 -9.125 11.75 C-9.78371094 12.44738281 -10.44242187 13.14476562 -11.12109375 13.86328125 C-12.74327774 15.57950489 -14.36965379 17.29153435 -16 19 C-18.64 18.01 -21.28 17.02 -24 16 C-24.20496094 16.71027344 -24.40992187 17.42054687 -24.62109375 18.15234375 C-24.89050781 19.07144531 -25.15992187 19.99054687 -25.4375 20.9375 C-25.70433594 21.85402344 -25.97117187 22.77054688 -26.24609375 23.71484375 C-27 26 -27 26 -28 27 C-29.68608966 27.07205511 -31.37500659 27.08386068 -33.0625 27.0625 C-33.98160156 27.05347656 -34.90070313 27.04445313 -35.84765625 27.03515625 C-36.55792969 27.02355469 -37.26820312 27.01195313 -38 27 C-38.19916016 27.90492187 -38.19916016 27.90492187 -38.40234375 28.828125 C-38.57894531 29.62734375 -38.75554688 30.4265625 -38.9375 31.25 C-39.11152344 32.03890625 -39.28554688 32.8278125 -39.46484375 33.640625 C-39.9472157 35.76728673 -40.47110699 37.88442798 -41 40 C-45.29 40 -49.58 40 -54 40 C-54 44.95 -54 49.9 -54 55 C-57.3 55 -60.6 55 -64 55 C-64 59.95 -64 64.9 -64 70 C-67.3 70 -70.6 70 -74 70 C-73.6390625 70.96421875 -73.278125 71.9284375 -72.90625 72.921875 C-72.43716262 74.19779268 -71.96843127 75.47384129 -71.5 76.75 C-71.14228516 77.70132813 -71.14228516 77.70132813 -70.77734375 78.671875 C-69.55198242 82.03286607 -69 84.36871587 -69 88 C-71.97 88.99 -71.97 88.99 -75 90 C-71.7 94.29 -68.4 98.58 -65 103 C-67 107 -67 107 -71 111 C-63.575 118.425 -63.575 118.425 -56 126 C-56.66 127.65 -57.32 129.3 -58 131 C-52.72 134.3 -47.44 137.6 -42 141 C-42.77595125 144.10380501 -43.5268006 146.25002779 -45 149 C-43.1746875 149.556875 -43.1746875 149.556875 -41.3125 150.125 C-34.97615532 152.22024496 -29.01375958 155.12789535 -23 158 C-23.87196694 160.49004991 -24.77035852 162.96413312 -25.6875 165.4375 C-25.93177734 166.14455078 -26.17605469 166.85160156 -26.42773438 167.58007812 C-27.19921875 169.62109375 -27.19921875 169.62109375 -29 173 C-33.02033276 174.43232039 -35.99686732 173.74890221 -40.03515625 172.63671875 C-41.17404297 172.32669922 -42.31292969 172.01667969 -43.48632812 171.69726562 C-45.2565332 171.19743164 -45.2565332 171.19743164 -47.0625 170.6875 C-48.24650391 170.36587891 -49.43050781 170.04425781 -50.65039062 169.71289062 C-55.36591226 168.41178069 -59.61020183 167.19489909 -64 165 C-62.68 162.03 -61.36 159.06 -60 156 C-66.6 151.71 -73.2 147.42 -80 143 C-78.68 140.69 -77.36 138.38 -76 136 C-76.83378652 131.24564283 -82.26772944 128.05976727 -85.83203125 125.06640625 C-87.29344636 123.78899498 -88.65450569 122.39898491 -90 121 C-90 117 -90 117 -87.5 114.25 C-86.675 113.5075 -85.85 112.765 -85 112 C-86.88306217 106.5998958 -90.12489731 102.36748223 -93.41796875 97.7421875 C-93.94003906 96.83726563 -94.46210937 95.93234375 -95 95 C-93.88333826 91.65001479 -93.25305075 91.20659778 -90.4375 89.3125 C-89.79683594 88.87550781 -89.15617187 88.43851562 -88.49609375 87.98828125 C-88.00238281 87.66214844 -87.50867188 87.33601563 -87 87 C-87.59015185 81.49191603 -88.56663769 76.35121931 -90 71 C-84.375 69 -84.375 69 -81 69 C-81 61.74 -81 54.48 -81 47 C-77.37 47 -73.74 47 -70 47 C-69.87625 45.47375 -69.7525 43.9475 -69.625 42.375 C-69.22904155 38.33507609 -68.49937195 34.79840893 -67 31 C-63.37 31 -59.74 31 -56 31 C-55.67 29.35 -55.34 27.7 -55 26 C-54.10694126 23.60771311 -53.05103974 21.33056638 -52 19 C-48.37 19 -44.74 19 -41 19 C-40.731875 18.113125 -40.46375 17.22625 -40.1875 16.3125 C-39.03145317 13.08773779 -38.11496037 10.69135514 -36 8 C-33.07421875 7.5390625 -33.07421875 7.5390625 -29.6875 7.625 C-25.07352607 7.70287129 -25.07352607 7.70287129 -21.41015625 5.39453125 C-21.02730469 4.74871094 -20.64445312 4.10289062 -20.25 3.4375 C-16.20586791 -2.79402428 -6.47901494 -0.45454114 0 0 Z " fill="#057D4C" transform="translate(100,3)"/>
<path d="M0 0 C-0.4640625 1.36125 -0.4640625 1.36125 -0.9375 2.75 C-1.71824855 5.13817205 -2.39061584 7.56246334 -3 10 C4.425 10.99 4.425 10.99 12 12 C13.65 8.04 15.3 4.08 17 0 C17.495 1.485 17.495 1.485 18 3 C25.03133939 5.06090982 32.32827408 5.78258779 39.58349609 6.69384766 C43.47760892 7.18720161 47.3692146 7.69963805 51.26123047 8.20922852 C55.84049523 8.8086511 60.42024616 9.4043276 65 10 C65.97151623 35.0062076 66.11918269 59.97713529 66 85 C55.98878159 89.38045019 45.75523065 92.98430403 35.4375 96.5625 C32.99846283 97.41184002 30.55978894 98.26219201 28.12173462 99.11434937 C26.54804024 99.66221617 24.97283168 100.20575433 23.39608765 100.74478149 C20.16645535 101.85444468 17.02121427 102.99070064 13.89111328 104.36279297 C6.8647117 107.42920976 1.59917346 106.99873509 -5.84289551 105.44763184 C-8.2478916 104.94855874 -10.65912377 104.49288958 -13.07324219 104.04003906 C-17.85672685 103.1339333 -22.63092675 102.18630447 -27.40332031 101.22363281 C-30.36151316 100.62771687 -33.32125591 100.04002038 -36.28125 99.453125 C-47.26944835 97.25824013 -58.16369042 94.85433755 -69 92 C-69.19612198 75.94251314 -68.58558875 59.91973873 -68 43.875 C-67.90299585 41.16278339 -67.8069554 38.45053293 -67.7109375 35.73828125 C-67.47728632 29.15873168 -67.24007954 22.57931798 -67 16 C-66.28718872 15.71899948 -65.57437744 15.43799896 -64.83996582 15.14848328 C-61.56892715 13.85657424 -58.30008641 12.55918939 -55.03125 11.26171875 C-53.91008789 10.81985229 -52.78892578 10.37798584 -51.63378906 9.92272949 C-46.07326596 7.71134283 -40.6090151 5.4446435 -35.28538513 2.70680237 C-24.10997355 -2.89097979 -12.09212999 -1.21139964 0 0 Z M56.4375 13.6875 C51.81892431 15.39565879 47.16696285 16.885152 42.4375 18.25 C34.60391458 20.51527672 26.79781388 22.86442332 19 25.25 C17.83525146 25.60352539 16.67050293 25.95705078 15.47045898 26.32128906 C13.84539429 26.81967285 13.84539429 26.81967285 12.1875 27.328125 C11.21167969 27.6262207 10.23585938 27.92431641 9.23046875 28.23144531 C7.05518628 28.79875517 7.05518628 28.79875517 6 30 C5.90556665 32.30053835 5.88257872 34.60402173 5.88647461 36.90649414 C5.88632858 37.62840439 5.88618256 38.35031464 5.8860321 39.09410095 C5.88673131 41.49114947 5.89452405 43.88812123 5.90234375 46.28515625 C5.9042079 47.94282489 5.90563182 49.60049407 5.90663147 51.25816345 C5.91045688 55.62954214 5.92028735 60.00088781 5.93133545 64.37225342 C5.94154908 68.82954461 5.94612899 73.28684111 5.95117188 77.74414062 C5.9619096 86.49610893 5.97898629 95.24805036 6 104 C10.42240993 103.30898038 14.37562563 102.29161181 18.59375 100.77734375 C19.22116089 100.55357559 19.84857178 100.32980743 20.49499512 100.09925842 C22.49838784 99.38338342 24.49918467 98.66054288 26.5 97.9375 C27.77978663 97.4793669 29.05973376 97.0216819 30.33984375 96.56445312 C41.91032599 92.42385483 53.45297311 88.20543457 65 84 C64.88029286 77.12125455 64.75556881 70.24261192 64.62768555 63.36401367 C64.58491896 61.03395548 64.54321619 58.70387746 64.50268555 56.3737793 C64.24424073 41.56584828 63.80593874 26.78872857 63 12 C60.47978191 12 58.79555934 12.77667708 56.4375 13.6875 Z M-65 18 C-65.26365726 25.45075482 -65.52461431 32.9016003 -65.78230286 40.35256386 C-65.90209167 43.81386499 -66.02274472 47.27513111 -66.14550781 50.73632812 C-66.28722203 54.73298132 -66.42493442 58.72976434 -66.5625 62.7265625 C-66.60624756 63.94485748 -66.64999512 65.16315247 -66.69506836 66.41836548 C-66.97325732 74.61759329 -67.04927501 82.79639555 -67 91 C-61.74275126 92.35280439 -56.48771377 93.54478529 -51.15234375 94.55078125 C-49.65493559 94.83774494 -48.15754024 95.12477548 -46.66015625 95.41186523 C-45.88816895 95.55904999 -45.11618164 95.70623474 -44.32080078 95.85787964 C-31.74142143 98.25742653 -19.18839204 100.72110168 -6.70288086 103.57739258 C-5.86249268 103.76712646 -5.02210449 103.95686035 -4.15625 104.15234375 C-3.08600586 104.3997229 -3.08600586 104.3997229 -1.99414062 104.65209961 C0.31937017 105.11457694 0.31937017 105.11457694 4 105 C4 80.25 4 55.5 4 30 C-11.45007029 27.17186674 -11.45007029 27.17186674 -26.90063477 24.34643555 C-28.87260619 23.98512295 -30.84453204 23.62356149 -32.81640625 23.26171875 C-33.86985733 23.06873703 -34.92330841 22.87575531 -36.00868225 22.67692566 C-43.06864094 21.37650593 -50.10469509 19.99213323 -57.12475586 18.49145508 C-59.82608111 18.02972733 -62.2690607 17.963848 -65 18 Z " fill="#EB0222" transform="translate(118,39)"/>
<path d="M0 0 C-1.75 5.75 -1.75 5.75 -4 8 C-4 6.02 -4 4.04 -4 2 C-4.85722656 2.01160156 -5.71445313 2.02320313 -6.59765625 2.03515625 C-7.74105469 2.04417969 -8.88445312 2.05320313 -10.0625 2.0625 C-11.18785156 2.07410156 -12.31320313 2.08570313 -13.47265625 2.09765625 C-17 2 -17 2 -20.18554688 1.29492188 C-25.08778277 0.91589596 -28.13876146 2.22307796 -32.55859375 4.18359375 C-33.34774673 4.51794937 -34.13689972 4.85230499 -34.94996643 5.1967926 C-37.45281604 6.26145645 -39.94494732 7.34897864 -42.4375 8.4375 C-44.13931731 9.1662489 -45.84178573 9.89347929 -47.54492188 10.61914062 C-51.7043574 12.39527081 -55.85434175 14.19195931 -60 16 C-42.45613707 19.81698221 -42.45613707 19.81698221 -24.7109375 22.46484375 C-21.02177295 22.99686011 -17.44530825 23.74291041 -13.81225586 24.56298828 C0.93093353 27.87765006 10.7895196 27.15619789 25.01953125 22.08984375 C31.72125261 19.70829661 38.50919649 17.63230044 45.3125 15.5625 C46.47023926 15.20865234 47.62797852 14.85480469 48.82080078 14.49023438 C51.54651922 13.65789103 54.27288789 12.82776331 57 12 C46.41432197 10.02045013 35.8223228 8.3629554 25.13818359 7.00268555 C24.23793457 6.88578369 23.33768555 6.76888184 22.41015625 6.6484375 C21.60715088 6.54708496 20.80414551 6.44573242 19.97680664 6.34130859 C18 6 18 6 16 5 C16.33 3.35 16.66 1.7 17 0 C17.495 1.485 17.495 1.485 18 3 C25.03133939 5.06090982 32.32827408 5.78258779 39.58349609 6.69384766 C43.47760892 7.18720161 47.3692146 7.69963805 51.26123047 8.20922852 C55.84049523 8.8086511 60.42024616 9.4043276 65 10 C65.97151623 35.0062076 66.11918269 59.97713529 66 85 C55.98878159 89.38045019 45.75523065 92.98430403 35.4375 96.5625 C32.99846283 97.41184002 30.55978894 98.26219201 28.12173462 99.11434937 C26.54804024 99.66221617 24.97283168 100.20575433 23.39608765 100.74478149 C20.16645535 101.85444468 17.02121427 102.99070064 13.89111328 104.36279297 C6.8647117 107.42920976 1.59917346 106.99873509 -5.84289551 105.44763184 C-8.2478916 104.94855874 -10.65912377 104.49288958 -13.07324219 104.04003906 C-17.85672685 103.1339333 -22.63092675 102.18630447 -27.40332031 101.22363281 C-30.36151316 100.62771687 -33.32125591 100.04002038 -36.28125 99.453125 C-47.26944835 97.25824013 -58.16369042 94.85433755 -69 92 C-69.19612198 75.94251314 -68.58558875 59.91973873 -68 43.875 C-67.90299585 41.16278339 -67.8069554 38.45053293 -67.7109375 35.73828125 C-67.47728632 29.15873168 -67.24007954 22.57931798 -67 16 C-66.28718872 15.71899948 -65.57437744 15.43799896 -64.83996582 15.14848328 C-61.56892715 13.85657424 -58.30008641 12.55918939 -55.03125 11.26171875 C-53.91008789 10.81985229 -52.78892578 10.37798584 -51.63378906 9.92272949 C-46.07326596 7.71134283 -40.6090151 5.4446435 -35.28538513 2.70680237 C-24.10997355 -2.89097979 -12.09212999 -1.21139964 0 0 Z M56.4375 13.6875 C51.81892431 15.39565879 47.16696285 16.885152 42.4375 18.25 C34.60391458 20.51527672 26.79781388 22.86442332 19 25.25 C17.83525146 25.60352539 16.67050293 25.95705078 15.47045898 26.32128906 C13.84539429 26.81967285 13.84539429 26.81967285 12.1875 27.328125 C11.21167969 27.6262207 10.23585938 27.92431641 9.23046875 28.23144531 C7.05518628 28.79875517 7.05518628 28.79875517 6 30 C5.90556665 32.30053835 5.88257872 34.60402173 5.88647461 36.90649414 C5.88632858 37.62840439 5.88618256 38.35031464 5.8860321 39.09410095 C5.88673131 41.49114947 5.89452405 43.88812123 5.90234375 46.28515625 C5.9042079 47.94282489 5.90563182 49.60049407 5.90663147 51.25816345 C5.91045688 55.62954214 5.92028735 60.00088781 5.93133545 64.37225342 C5.94154908 68.82954461 5.94612899 73.28684111 5.95117188 77.74414062 C5.9619096 86.49610893 5.97898629 95.24805036 6 104 C10.42240993 103.30898038 14.37562563 102.29161181 18.59375 100.77734375 C19.22116089 100.55357559 19.84857178 100.32980743 20.49499512 100.09925842 C22.49838784 99.38338342 24.49918467 98.66054288 26.5 97.9375 C27.77978663 97.4793669 29.05973376 97.0216819 30.33984375 96.56445312 C41.91032599 92.42385483 53.45297311 88.20543457 65 84 C64.88029286 77.12125455 64.75556881 70.24261192 64.62768555 63.36401367 C64.58491896 61.03395548 64.54321619 58.70387746 64.50268555 56.3737793 C64.24424073 41.56584828 63.80593874 26.78872857 63 12 C60.47978191 12 58.79555934 12.77667708 56.4375 13.6875 Z M-65 18 C-65.26365726 25.45075482 -65.52461431 32.9016003 -65.78230286 40.35256386 C-65.90209167 43.81386499 -66.02274472 47.27513111 -66.14550781 50.73632812 C-66.28722203 54.73298132 -66.42493442 58.72976434 -66.5625 62.7265625 C-66.60624756 63.94485748 -66.64999512 65.16315247 -66.69506836 66.41836548 C-66.97325732 74.61759329 -67.04927501 82.79639555 -67 91 C-61.74275126 92.35280439 -56.48771377 93.54478529 -51.15234375 94.55078125 C-49.65493559 94.83774494 -48.15754024 95.12477548 -46.66015625 95.41186523 C-45.88816895 95.55904999 -45.11618164 95.70623474 -44.32080078 95.85787964 C-31.74142143 98.25742653 -19.18839204 100.72110168 -6.70288086 103.57739258 C-5.86249268 103.76712646 -5.02210449 103.95686035 -4.15625 104.15234375 C-3.08600586 104.3997229 -3.08600586 104.3997229 -1.99414062 104.65209961 C0.31937017 105.11457694 0.31937017 105.11457694 4 105 C4 80.25 4 55.5 4 30 C-11.45007029 27.17186674 -11.45007029 27.17186674 -26.90063477 24.34643555 C-28.87260619 23.98512295 -30.84453204 23.62356149 -32.81640625 23.26171875 C-33.86985733 23.06873703 -34.92330841 22.87575531 -36.00868225 22.67692566 C-43.06864094 21.37650593 -50.10469509 19.99213323 -57.12475586 18.49145508 C-59.82608111 18.02972733 -62.2690607 17.963848 -65 18 Z " fill="#2F1416" transform="translate(118,39)"/>
<path d="M0 0 C7.70114573 0.69038049 15.02454302 2.6442552 22.5 4.5625 C23.81238839 4.8956223 25.12488763 5.22830821 26.4375 5.56054688 C29.62611395 6.36942321 32.81353948 7.18268943 36 8 C34.91720359 11.24838923 34.10963155 12.04282583 31.5625 14.1875 C30.94503906 14.71730469 30.32757813 15.24710938 29.69140625 15.79296875 C28 17 28 17 26 17 C26.2165625 18.03640625 26.433125 19.0728125 26.65625 20.140625 C26.93770537 21.51037448 27.218944 22.88016851 27.5 24.25 C27.64308594 24.93191406 27.78617188 25.61382812 27.93359375 26.31640625 C28.61251049 29.64633121 29 32.58332551 29 36 C21.70924392 35.29411767 15.1688285 32.78555858 8.29882812 30.3515625 C7.38939453 30.03703125 6.47996094 29.7225 5.54296875 29.3984375 C4.71821045 29.10630371 3.89345215 28.81416992 3.04370117 28.51318359 C0.95265846 27.75217892 0.95265846 27.75217892 -1 29 C-1 28.34 -1 27.68 -1 27 C-1.91845703 26.93039063 -1.91845703 26.93039063 -2.85546875 26.859375 C-5 26 -5 26 -6.30078125 23.453125 C-6.63464844 22.39609375 -6.96851563 21.3390625 -7.3125 20.25 C-7.65925781 19.20328125 -8.00601563 18.1565625 -8.36328125 17.078125 C-9.24527481 12.81425431 -8.35220349 10.05661047 -7 6 C-5.34467377 4.98133771 -3.67739862 3.98189187 -2 3 C-1.34 2.01 -0.68 1.02 0 0 Z " fill="#057E4D" transform="translate(188,173)"/>
<path d="M0 0 C1.66015625 1.2421875 1.66015625 1.2421875 3.0625 2.875 C5.21547852 5.23381884 6.96109596 6.83119076 10 8 C9.67 9.32 9.34 10.64 9 12 C8.34 12 7.68 12 7 12 C6.814375 13.8253125 6.814375 13.8253125 6.625 15.6875 C6.05970878 20.18594419 5.28237509 23.71762491 2 27 C-0.64124431 27.85994001 -3.26157118 28.64094394 -5.9375 29.375 C-12.0388366 31.09772276 -17.98937018 32.986549 -23.8984375 35.30078125 C-26 36 -26 36 -29 36 C-28.814375 34.6078125 -28.814375 34.6078125 -28.625 33.1875 C-28.54507812 32.55199219 -28.46515625 31.91648438 -28.3828125 31.26171875 C-28 29 -28 29 -27.2421875 26.33203125 C-26.48373535 23.4379375 -25.94271807 20.99628551 -26 18 C-27.52350821 15.64432344 -29.10142381 14.1658752 -31.30078125 12.4375 C-33 11 -33 11 -34 8 C-5.38295058 -0.57833353 -5.38295058 -0.57833353 0 0 Z " fill="#067F4E" transform="translate(48,173)"/>
<path d="M0 0 C0.33 0.66 0.66 1.32 1 2 C1.97348389 1.98952637 2.94696777 1.97905273 3.94995117 1.96826172 C7.57475075 1.93195794 11.19953436 1.9090619 14.82446289 1.89013672 C16.39089667 1.88010274 17.95731183 1.86647246 19.52368164 1.84912109 C21.78015753 1.82475775 24.03638494 1.81349084 26.29296875 1.8046875 C26.98899704 1.79436493 27.68502533 1.78404236 28.40214539 1.77340698 C32.43051941 1.77248539 35.33225371 2.3952842 39 4 C40.67099977 3.68911632 42.33871537 3.35919668 44 3 C44.99 3.99 44.99 3.99 46 5 C46.66 3.68 47.32 2.36 48 1 C48.99 2.98 48.99 2.98 50 5 C49.34 5 48.68 5 48 5 C48 10.28 48 15.56 48 21 C47.34 21 46.68 21 46 21 C45.94392578 19.62714844 45.94392578 19.62714844 45.88671875 18.2265625 C45.82097656 17.03804687 45.75523437 15.84953125 45.6875 14.625 C45.62949219 13.44164062 45.57148438 12.25828125 45.51171875 11.0390625 C45.25841797 9.53472656 45.25841797 9.53472656 45 8 C44.01 7.34 43.02 6.68 42 6 C42.99 8.475 42.99 8.475 44 11 C40.59437148 11.77842938 37.49234244 12.09978121 34 12 C34.33 9.69 34.66 7.38 35 5 C29.72 4.67 24.44 4.34 19 4 C19.495 6.97 19.495 6.97 20 10 C21.98 8.68 23.96 7.36 26 6 C27.32 6.66 28.64 7.32 30 8 C29.34 12.29 28.68 16.58 28 21 C27.34 20.67 26.68 20.34 26 20 C26 16.7 26 13.4 26 10 C24.6078125 11.2684375 24.6078125 11.2684375 23.1875 12.5625 C21.60546875 14.00390625 21.60546875 14.00390625 20 15 C19.01 14.67 18.02 14.34 17 14 C17 10.7 17 7.4 17 4 C12.29157376 6.11326526 12.29157376 6.11326526 9 10 C8.83300768 13.12521833 8.83300768 13.12521833 9 16 C11.15634036 16 12.92446352 15.5534764 15 15 C14.505 17.475 14.505 17.475 14 20 C11.125 19.75 11.125 19.75 8 19 C6.12096356 16.69390982 6.00208388 15.01958849 5.6875 12.0625 C6.03745487 8.63294224 7.03063253 6.78993726 9 4 C6.69 4 4.38 4 2 4 C2 9.28 2 14.56 2 20 C1.34 19.67 0.68 19.34 0 19 C0 14.38 0 9.76 0 5 C-1.32 4.67 -2.64 4.34 -4 4 C-4 9.61 -4 15.22 -4 21 C-6 20 -6 20 -6.625 18.375 C-7.12095645 15.2339425 -7.06103811 12.17398169 -7 9 C-7.99 9 -8.98 9 -10 9 C-10.33 9.66 -10.66 10.32 -11 11 C-11.33 10.67 -11.66 10.34 -12 10 C-13.66617115 9.95936168 -15.33388095 9.957279 -17 10 C-17.33 10.99 -17.66 11.98 -18 13 C-17.34 13 -16.68 13 -16 13 C-16 12.34 -16 11.68 -16 11 C-14.68 11 -13.36 11 -12 11 C-12 12.32 -12 13.64 -12 15 C-14.875 15.1875 -14.875 15.1875 -18 15 C-20 12 -20 12 -19.6875 9.9375 C-19 8 -19 8 -18 6 C-17.28972656 6.01160156 -16.57945313 6.02320313 -15.84765625 6.03515625 C-14.92855469 6.04417969 -14.00945312 6.05320313 -13.0625 6.0625 C-11.68771484 6.07990234 -11.68771484 6.07990234 -10.28515625 6.09765625 C-8.03406673 6.25949049 -8.03406673 6.25949049 -7 5 C-11.62 5 -16.24 5 -21 5 C-21.33 4.34 -21.66 3.68 -22 3 C-14.74 3 -7.48 3 0 3 C0 2.01 0 1.02 0 0 Z " fill="#E9F2EE" transform="translate(121,182)"/>
<path d="M0 0 C0 0.33 0 0.66 0 1 C-42.9 1 -85.8 1 -130 1 C-130 0.67 -130 0.34 -130 0 C-41.89234793 -8.59141006 -41.89234793 -8.59141006 0 0 Z " fill="#F5F5F5" transform="translate(183,214)"/>
<path d="M0 0 C0.99 0.33 1.98 0.66 3 1 C2.67 25.42 2.34 49.84 2 75 C25.88062168 66.78658453 25.88062168 66.78658453 49.5546875 58.06640625 C50.63234375 57.66035156 51.71 57.25429687 52.8203125 56.8359375 C53.75117676 56.48063965 54.68204102 56.1253418 55.64111328 55.75927734 C58 55 58 55 61 55 C61 47.41 61 39.82 61 32 C61.33 32 61.66 32 62 32 C62 39.92 62 47.84 62 56 C51.96277299 60.334073 41.76188219 63.98199727 31.4375 67.5625 C28.99846283 68.41184002 26.55978894 69.26219201 24.12173462 70.11434937 C22.54804024 70.66221617 20.97283168 71.20575433 19.39608765 71.74478149 C16.16645535 72.85444468 13.02121427 73.99070064 9.89111328 75.36279297 C2.8647117 78.42920976 -2.40082654 77.99873509 -9.84289551 76.44763184 C-12.2478916 75.94855874 -14.65912377 75.49288958 -17.07324219 75.04003906 C-21.85672685 74.1339333 -26.63092675 73.18630447 -31.40332031 72.22363281 C-34.36151316 71.62771687 -37.32125591 71.04002038 -40.28125 70.453125 C-51.26944835 68.25824013 -62.16369042 65.85433755 -73 63 C-73 61.02 -73 59.04 -73 57 C-72.67 57 -72.34 57 -72 57 C-72 58.65 -72 60.3 -72 62 C-71.195625 62.08636719 -70.39125 62.17273438 -69.5625 62.26171875 C-57.19206797 63.7402024 -45.19478348 66.38683211 -33 69 C-16.665 72.465 -16.665 72.465 0 76 C0 50.92 0 25.84 0 0 Z " fill="#1C080A" transform="translate(122,68)"/>
<path d="M0 0 C0 6.93 0 13.86 0 21 C-5.61 21 -11.22 21 -17 21 C-17 14.4 -17 7.8 -17 1 C-11.07977716 0.01329619 -5.97084672 -0.0728152 0 0 Z " fill="#0D8353" transform="translate(218,50)"/>
<path d="M0 0 C4.51833282 -0.07658191 8.59318249 -0.10170438 13 1 C13.763125 1.185625 14.52625 1.37125 15.3125 1.5625 C15.869375 1.706875 16.42625 1.85125 17 2 C16.67 3.98 16.34 5.96 16 8 C15.34 8 14.68 8 14 8 C13.80664062 8.60328125 13.61328125 9.2065625 13.4140625 9.828125 C13.15367187 10.62734375 12.89328125 11.4265625 12.625 12.25 C12.24214844 13.43335938 12.24214844 13.43335938 11.8515625 14.640625 C11 17 11 17 9 21 C1.575 20.01 1.575 20.01 -6 19 C-7.12642186 15.62073443 -6.96344705 15.27071722 -5.56640625 12.20703125 C-5.0878418 11.1387207 -5.0878418 11.1387207 -4.59960938 10.04882812 C-4.25736328 9.31083984 -3.91511719 8.57285156 -3.5625 7.8125 C-3.22412109 7.06291016 -2.88574219 6.31332031 -2.53710938 5.54101562 C-1.7000589 3.69007302 -0.85114596 1.84450334 0 0 Z " fill="#EAE9EA" transform="translate(121,31)"/>
<path d="M0 0 C3.3 0 6.6 0 10 0 C10 0.33 10 0.66 10 1 C7.03 1 4.06 1 1 1 C1 7.93 1 14.86 1 22 C2.32 21.67 3.64 21.34 5 21 C12 34.51908397 12 34.51908397 12 41 C9.69 41.99 7.38 42.98 5 44 C3.62437146 42.71034824 2.29233607 41.37310707 1 40 C1 39.34 1 38.68 1 38 C-0.65 38.66 -2.3 39.32 -4 40 C-5.65 34.72 -7.3 29.44 -9 24 C-3 22 -3 22 0 22 C0 14.74 0 7.48 0 0 Z " fill="#127E52" transform="translate(19,50)"/>
<path d="M0 0 C0.33 0.66 0.66 1.32 1 2 C2.32 2 3.64 2 5 2 C5.33 2.66 5.66 3.32 6 4 C6.66 3.34 7.32 2.68 8 2 C10.625 2.375 10.625 2.375 13 3 C13.6875 4.8125 13.6875 4.8125 14 7 C12.6875 8.75 12.6875 8.75 11 10 C10.34 10 9.68 10 9 10 C12.465 13.96 12.465 13.96 16 18 C11.75354935 18 9.61475228 16.18249194 6 14 C6 13.34 6 12.68 6 12 C5.34 12 4.68 12 4 12 C3.67 14.64 3.34 17.28 3 20 C2.34 19.67 1.68 19.34 1 19 C0.53193355 16.66255706 0.17330206 14.30260921 -0.125 11.9375 C-0.29257813 10.64714844 -0.46015625 9.35679687 -0.6328125 8.02734375 C-0.75398438 7.02832031 -0.87515625 6.02929688 -1 5 C-1.99 4.67 -2.98 4.34 -4 4 C-4 8.95 -4 13.9 -4 19 C-5.98 17.68 -7.96 16.36 -10 15 C-12.7282504 14.21784412 -12.7282504 14.21784412 -15 14 C-15.33 12.68 -15.66 11.36 -16 10 C-13.03 8.35 -10.06 6.7 -7 5 C-10.96 5 -14.92 5 -19 5 C-19.33 4.34 -19.66 3.68 -20 3 C-13.73 2.67 -7.46 2.34 -1 2 C-0.67 1.34 -0.34 0.68 0 0 Z " fill="#E4EFEA" transform="translate(85,184)"/>
<path d="M0 0 C4.36752181 0.06304822 7.21458497 0.43836343 10.6875 3.3125 C9.6975 3.8075 9.6975 3.8075 8.6875 4.3125 C8.0275 3.9825 7.3675 3.6525 6.6875 3.3125 C5.02515189 3.16648294 3.35599493 3.09160166 1.6875 3.0625 C0.800625 3.03671875 -0.08625 3.0109375 -1 2.984375 C-1.763125 3.09265625 -2.52625 3.2009375 -3.3125 3.3125 C-4.3025 4.7975 -4.3025 4.7975 -5.3125 6.3125 C1.9475 6.6425 9.2075 6.9725 16.6875 7.3125 C17.0175 7.9725 17.3475 8.6325 17.6875 9.3125 C16.6975 9.3125 15.7075 9.3125 14.6875 9.3125 C14.6875 15.2525 14.6875 21.1925 14.6875 27.3125 C14.0275 26.9825 13.3675 26.6525 12.6875 26.3125 C12.543125 25.19875 12.39875 24.085 12.25 22.9375 C11.99014387 19.40617822 11.99014387 19.40617822 10.25 17.375 C8.72677901 16.12506333 8.72677901 16.12506333 6.6875 16.3125 C6.3575 17.6325 6.0275 18.9525 5.6875 20.3125 C4.0375 19.9825 2.3875 19.6525 0.6875 19.3125 C0.0625 17.4375 0.0625 17.4375 -0.3125 15.3125 C1.6875 13.3125 1.6875 13.3125 5.125 13 C8.6875 13.3125 8.6875 13.3125 10.625 14.8125 C10.975625 15.3075 11.32625 15.8025 11.6875 16.3125 C12.0175 14.0025 12.3475 11.6925 12.6875 9.3125 C7.0775 9.3125 1.4675 9.3125 -4.3125 9.3125 C-4.3125 14.9225 -4.3125 20.5325 -4.3125 26.3125 C-4.9725 25.9825 -5.6325 25.6525 -6.3125 25.3125 C-6.3125 20.0325 -6.3125 14.7525 -6.3125 9.3125 C-7.9625 8.9825 -9.6125 8.6525 -11.3125 8.3125 C-10.3225 7.6525 -9.3325 6.9925 -8.3125 6.3125 C-7.9403958 4.98946283 -7.60619827 3.65512065 -7.3125 2.3125 C-4.73034328 -0.26965672 -3.58546873 0.01455535 0 0 Z " fill="#FDE3E6" transform="translate(93.3125,83.6875)"/>
<path d="M0 0 C0 0.66 0 1.32 0 2 C-2.97 2 -5.94 2 -9 2 C-9 2.66 -9 3.32 -9 4 C-8.236875 4.0825 -7.47375 4.165 -6.6875 4.25 C-4 5 -4 5 -2.1875 6.75 C-0.80391706 9.37152557 -0.75639573 11.07674878 -1 14 C-2.32 14.33 -3.64 14.66 -5 15 C-5.33 13.68 -5.66 12.36 -6 11 C-5.01 10.67 -4.02 10.34 -3 10 C-3.33 9.34 -3.66 8.68 -4 8 C-5.32 7.67 -6.64 7.34 -8 7 C-7.34 11.95 -6.68 16.9 -6 22 C-7.051875 21.05125 -8.10375 20.1025 -9.1875 19.125 C-12.02063746 16.67611397 -14.47921125 15.30772154 -18 14 C-18.66 13.01 -19.32 12.02 -20 11 C-18.8803014 9.99406757 -17.7540588 8.9954151 -16.625 8 C-15.99851563 7.443125 -15.37203125 6.88625 -14.7265625 6.3125 C-13 5 -13 5 -11 5 C-11 4.34 -11 3.68 -11 3 C-14.96 3.66 -18.92 4.32 -23 5 C-23 4.01 -23 3.02 -23 2 C-15.26940505 0.64290496 -7.85546636 -0.31918373 0 0 Z " fill="#FDDEE1" transform="translate(170,87)"/>
<path d="M0 0 C0.33 0.66 0.66 1.32 1 2 C11.89 2 22.78 2 34 2 C34 2.33 34 2.66 34 3 C23.11 3 12.22 3 1 3 C1 3.66 1 4.32 1 5 C-1.475 4.505 -1.475 4.505 -4 4 C-4 9.61 -4 15.22 -4 21 C-6 20 -6 20 -6.625 18.375 C-7.12095645 15.2339425 -7.06103811 12.17398169 -7 9 C-7.99 9 -8.98 9 -10 9 C-10.33 9.66 -10.66 10.32 -11 11 C-11.33 10.67 -11.66 10.34 -12 10 C-13.66617115 9.95936168 -15.33388095 9.957279 -17 10 C-17.33 10.99 -17.66 11.98 -18 13 C-17.34 13 -16.68 13 -16 13 C-16 12.34 -16 11.68 -16 11 C-14.68 11 -13.36 11 -12 11 C-12 12.32 -12 13.64 -12 15 C-14.875 15.1875 -14.875 15.1875 -18 15 C-20 12 -20 12 -19.6875 9.9375 C-19 8 -19 8 -18 6 C-17.28972656 6.01160156 -16.57945313 6.02320313 -15.84765625 6.03515625 C-14.92855469 6.04417969 -14.00945312 6.05320313 -13.0625 6.0625 C-11.68771484 6.07990234 -11.68771484 6.07990234 -10.28515625 6.09765625 C-8.03406673 6.25949049 -8.03406673 6.25949049 -7 5 C-11.62 5 -16.24 5 -21 5 C-21.33 4.34 -21.66 3.68 -22 3 C-14.74 3 -7.48 3 0 3 C0 2.01 0 1.02 0 0 Z " fill="#B7D6C7" transform="translate(121,182)"/>
<path d="M0 0 C2 2 2 2 2.24291992 4.73608398 C2.23675659 6.47353882 2.23675659 6.47353882 2.23046875 8.24609375 C2.22926025 9.54562988 2.22805176 10.84516602 2.22680664 12.18408203 C2.21430684 13.60189346 2.2011903 15.01969957 2.1875 16.4375 C2.17995604 17.88655445 2.17271611 19.33561052 2.16577148 20.78466797 C2.04896314 38.86554771 1.56541578 56.98106517 0 75 C-0.33 75 -0.66 75 -1 75 C-2.18028354 70.42996496 -2.05284015 65.98518662 -1.9140625 61.30859375 C-1.88267937 60.0328373 -1.88267937 60.0328373 -1.85066223 58.73130798 C-1.78104653 55.96652762 -1.70322282 53.20204911 -1.625 50.4375 C-1.57526236 48.54053622 -1.52586616 46.64356347 -1.47680664 44.74658203 C-1.08313398 29.82765496 -0.59473303 14.91230916 0 0 Z " fill="#301D1F" transform="translate(51,55)"/>
<path d="M0 0 C0.66 0.66 1.32 1.32 2 2 C2.66 1.34 3.32 0.68 4 0 C6.625 0.375 6.625 0.375 9 1 C9.6875 2.8125 9.6875 2.8125 10 5 C8.6875 6.75 8.6875 6.75 7 8 C6.34 8 5.68 8 5 8 C7.31 10.64 9.62 13.28 12 16 C7.75354935 16 5.61475228 14.18249194 2 12 C2 11.34 2 10.68 2 10 C0.68 9.67 -0.64 9.34 -2 9 C-2 6.36 -2 3.72 -2 1 C-1.34 0.67 -0.68 0.34 0 0 Z " fill="#1F8B5C" transform="translate(89,186)"/>
<path d="M0 0 C-1.75 5.75 -1.75 5.75 -4 8 C-4 6.02 -4 4.04 -4 2 C-4.85722656 2.01160156 -5.71445313 2.02320313 -6.59765625 2.03515625 C-7.74105469 2.04417969 -8.88445312 2.05320313 -10.0625 2.0625 C-11.18785156 2.07410156 -12.31320313 2.08570313 -13.47265625 2.09765625 C-17 2 -17 2 -20.29003906 1.33374023 C-24.66744618 0.93995795 -26.89643881 1.78222555 -30.88671875 3.5625 C-31.51101273 3.83263916 -32.1353067 4.10277832 -32.77851868 4.38110352 C-34.75555773 5.23828713 -36.7218892 6.11695894 -38.6875 7 C-40.66452443 7.88103122 -42.64326849 8.7567747 -44.62861633 9.61889648 C-46.42282682 10.39885778 -48.20909352 11.19701781 -49.99487305 11.99609375 C-52.97940672 12.99312052 -54.14681478 13.1812912 -57 12 C-37.54444045 2.7405221 -21.93248612 -3.65841059 0 0 Z " fill="#1B1011" transform="translate(118,39)"/>
<path d="M0 0 C11.385 2.97 11.385 2.97 23 6 C17.71978885 8.64010557 12.90397897 9.60040464 7 9 C3.97749187 7.15319203 1.8858662 4.99480866 0 2 C0 1.34 0 0.68 0 0 Z " fill="#EFEFEF" transform="translate(47,171)"/>
<path d="M0 0 C0.33 0 0.66 0 1 0 C1.33 1.98 1.66 3.96 2 6 C3.98 4.68 5.96 3.36 8 2 C9.32 2.66 10.64 3.32 12 4 C11.34 8.29 10.68 12.58 10 17 C9.34 16.67 8.68 16.34 8 16 C8 12.7 8 9.4 8 6 C7.071875 6.845625 6.14375 7.69125 5.1875 8.5625 C3.60546875 10.00390625 3.60546875 10.00390625 2 11 C1.01 10.67 0.02 10.34 -1 10 C-0.67 6.7 -0.34 3.4 0 0 Z " fill="#E5F0EB" transform="translate(139,186)"/>
<path d="M0 0 C0.33 0 0.66 0 1 0 C2.01139605 15.76694194 2.36045184 31.23333498 1 47 C0.67 47 0.34 47 0 47 C-1.31074078 42.10568512 -1.03073607 37.33873158 -0.87890625 32.32421875 C-0.85529526 31.3990596 -0.83168427 30.47390045 -0.80735779 29.52070618 C-0.73100288 26.576137 -0.64685775 23.6318497 -0.5625 20.6875 C-0.5092511 18.68686259 -0.4565109 16.68621156 -0.40429688 14.68554688 C-0.27542597 9.79018729 -0.13956966 4.89506576 0 0 Z " fill="#463234" transform="translate(50,83)"/>
<path d="M0 0 C-7 7 -7 7 -9.71484375 7.046875 C-11.31005859 6.89992187 -11.31005859 6.89992187 -12.9375 6.75 C-14.52884766 6.61851562 -14.52884766 6.61851562 -16.15234375 6.484375 C-19 6 -19 6 -22 4 C-18.71122636 3.13441614 -15.4186065 2.28449158 -12.125 1.4375 C-11.18785156 1.19064453 -10.25070313 0.94378906 -9.28515625 0.68945312 C-8.38925781 0.46064453 -7.49335938 0.23183594 -6.5703125 -0.00390625 C-5.74289551 -0.21861572 -4.91547852 -0.4333252 -4.06298828 -0.65454102 C-2 -1 -2 -1 0 0 Z " fill="#EFEFEF" transform="translate(191,172)"/>
<path d="M0 0 C-1.65 0.66 -3.3 1.32 -5 2 C4.24 3.98 13.48 5.96 23 8 C23 8.33 23 8.66 23 9 C15.58902474 9.36687996 8.74406296 7.97269412 1.5 6.5 C0.29601562 6.26152344 -0.90796875 6.02304687 -2.1484375 5.77734375 C-5.10037475 5.19164191 -8.05074335 4.59902793 -11 4 C-11 3.34 -11 2.68 -11 2 C-3.57142857 -1.57142857 -3.57142857 -1.57142857 0 0 Z " fill="#130204" transform="translate(63,53)"/>
<path d="M0 0 C3.3 0 6.6 0 10 0 C10.33 0.66 10.66 1.32 11 2 C10.01 2 9.02 2 8 2 C7.67 2.99 7.34 3.98 7 5 C6.67 4.67 6.34 4.34 6 4 C4.33382885 3.95936168 2.66611905 3.957279 1 4 C0.67 4.99 0.34 5.98 0 7 C0.66 7 1.32 7 2 7 C2 6.34 2 5.68 2 5 C3.32 5 4.64 5 6 5 C6 6.32 6 7.64 6 9 C3.125 9.1875 3.125 9.1875 0 9 C-2 6 -2 6 -1.6875 3.9375 C-1 2 -1 2 0 0 Z " fill="#DAEAE3" transform="translate(103,188)"/>
<path d="M0 0 C0.33 0.66 0.66 1.32 1 2 C1.99 2.33 2.98 2.66 4 3 C3.34 3 2.68 3 2 3 C2.165 4.134375 2.33 5.26875 2.5 6.4375 C3.07576084 10.97060294 3.09505266 15.43747238 3 20 C2.34 19.67 1.68 19.34 1 19 C0.53193355 16.66255706 0.17330206 14.30260921 -0.125 11.9375 C-0.29257813 10.64714844 -0.46015625 9.35679687 -0.6328125 8.02734375 C-0.75398438 7.02832031 -0.87515625 6.02929688 -1 5 C-3.64 4.34 -6.28 3.68 -9 3 C-9 2.67 -9 2.34 -9 2 C-6.36 2 -3.72 2 -1 2 C-0.67 1.34 -0.34 0.68 0 0 Z " fill="#CEE3D9" transform="translate(85,184)"/>
<path d="M0 0 C0 0.66 0 1.32 0 2 C-7.65647079 3.12178733 -15.30232994 4.2036893 -23 5 C-23 4.01 -23 3.02 -23 2 C-15.26940505 0.64290496 -7.85546636 -0.31918373 0 0 Z " fill="#FCD7DB" transform="translate(170,87)"/>
<path d="M0 0 C4.36752181 0.06304822 7.21458497 0.43836343 10.6875 3.3125 C9.6975 3.8075 9.6975 3.8075 8.6875 4.3125 C8.0275 3.9825 7.3675 3.6525 6.6875 3.3125 C3.30709517 2.90661949 0.05770267 2.7892465 -3.3125 3.3125 C-5.26585182 5.65040071 -5.26585182 5.65040071 -6.3125 8.3125 C-8.5 9.125 -8.5 9.125 -10.3125 9.3125 C-10.6425 8.6525 -10.9725 7.9925 -11.3125 7.3125 C-10.3225 6.9825 -9.3325 6.6525 -8.3125 6.3125 C-7.72179986 4.36646726 -7.72179986 4.36646726 -7.3125 2.3125 C-4.73034328 -0.26965672 -3.58546873 0.01455535 0 0 Z " fill="#FCD5D9" transform="translate(93.3125,83.6875)"/>
<path d="M0 0 C2.625 0.375 2.625 0.375 5 1 C5.625 2.875 5.625 2.875 6 5 C4 7 4 7 1.375 7.125 C0.59125 7.08375 -0.1925 7.0425 -1 7 C-1.625 4.625 -1.625 4.625 -2 2 C-1.34 1.34 -0.68 0.68 0 0 Z " fill="#ACD3C1" transform="translate(93,186)"/>
<path d="M0 0 C2.31 0 4.62 0 7 0 C7 7.59 7 15.18 7 23 C6.67 23 6.34 23 6 23 C6 16.07 6 9.14 6 2 C3.36 2.99 0.72 3.98 -2 5 C-2.99 4.67 -3.98 4.34 -5 4 C-3.35 3.34 -1.7 2.68 0 2 C0 1.34 0 0.68 0 0 Z " fill="#0A0101" transform="translate(175,49)"/>
<path d="M0 0 C5.28 0 10.56 0 16 0 C16 0.33 16 0.66 16 1 C13.03 1 10.06 1 7 1 C7 1.66 7 2.32 7 3 C4.69 4.32 2.38 5.64 0 7 C0 4.69 0 2.38 0 0 Z " fill="#158857" transform="translate(140,186)"/>
<path d="M0 0 C0.66 0 1.32 0 2 0 C2.33 2.31 2.66 4.62 3 7 C5.15634036 7 6.92446352 6.5534764 9 6 C8.67 7.65 8.34 9.3 8 11 C5.125 10.75 5.125 10.75 2 10 C-0.48868169 6.94570883 -0.17309921 3.80818272 0 0 Z " fill="#DEECE6" transform="translate(127,191)"/>
<path d="M0 0 C0.66 0.33 1.32 0.66 2 1 C2 6.94 2 12.88 2 19 C1.34 18.67 0.68 18.34 0 18 C0 12.72 0 7.44 0 2 C-0.99 1.67 -1.98 1.34 -3 1 C-2.01 0.67 -1.02 0.34 0 0 Z " fill="#FEEBED" transform="translate(87,91)"/>
<path d="M0 0 C1.32 0.66 2.64 1.32 4 2 C3.34 6.29 2.68 10.58 2 15 C1.34 14.67 0.68 14.34 0 14 C-0.44921875 11.6015625 -0.44921875 11.6015625 -0.6875 8.625 C-0.77386719 7.64789063 -0.86023438 6.67078125 -0.94921875 5.6640625 C-1 3 -1 3 0 0 Z " fill="#D0E4DB" transform="translate(147,188)"/>
<path d="M0 0 C-1.75 5.75 -1.75 5.75 -4 8 C-4 6.02 -4 4.04 -4 2 C-8.29 2 -12.58 2 -17 2 C-17 1.67 -17 1.34 -17 1 C-11.33357449 -0.22517308 -5.76291482 -0.09228867 0 0 Z " fill="#5E1A21" transform="translate(118,39)"/>
<path d="M0 0 C0.99 0.33 1.98 0.66 3 1 C1.95199219 2.03060547 1.95199219 2.03060547 0.8828125 3.08203125 C-0.02726563 3.98308594 -0.93734375 4.88414062 -1.875 5.8125 C-2.77992188 6.70582031 -3.68484375 7.59914062 -4.6171875 8.51953125 C-7.09831514 10.95638333 -7.09831514 10.95638333 -9 14 C-8.47731534 11.23723823 -7.89130413 8.6739124 -7 6 C-5.34467377 4.98133771 -3.67739862 3.98189187 -2 3 C-1.34 2.01 -0.68 1.02 0 0 Z " fill="#126E47" transform="translate(188,173)"/>
<path d="M0 0 C0.33 2.97 0.66 5.94 1 9 C-2.465 7.02 -2.465 7.02 -6 5 C-1.125 0 -1.125 0 0 0 Z " fill="#F41A2E" transform="translate(160,94)"/>
<path d="M0 0 C0 2.31 0 4.62 0 7 C-1.98 6.01 -3.96 5.02 -6 4 C-2.25 0 -2.25 0 0 0 Z " fill="#0F8350" transform="translate(79,192)"/>
<path d="M0 0 C0.33 0 0.66 0 1 0 C1 4.95 1 9.9 1 15 C0.01 14.34 -0.98 13.68 -2 13 C-1.34 8.71 -0.68 4.42 0 0 Z " fill="#CEE3D9" transform="translate(80,188)"/>
<path d="M0 0 C-0.99 0.33 -1.98 0.66 -3 1 C-3.33 1.99 -3.66 2.98 -4 4 C-6.31 3.34 -8.62 2.68 -11 2 C-10.67 1.34 -10.34 0.68 -10 0 C-6.35526801 -0.89093449 -3.57257469 -1.23666047 0 0 Z " fill="#E5F0EB" transform="translate(114,189)"/>
<path d="M0 0 C0.66 0.33 1.32 0.66 2 1 C2 5 2 5 1 7 C-0.32 6.67 -1.64 6.34 -3 6 C-3 3 -3 3 -1.5 1.3125 C-0.7575 0.6628125 -0.7575 0.6628125 0 0 Z " fill="#FEEFF1" transform="translate(154,94)"/>
<path d="M0 0 C3.625 -0.1875 3.625 -0.1875 7 0 C6.01 0.66 5.02 1.32 4 2 C1.96864317 3.63101643 -0.00931873 5.31898026 -2 7 C-2 3 -2 3 0 0 Z " fill="#F1F7F5" transform="translate(131,185)"/>
<path d="M0 0 C1.43836751 0.11458693 2.87570966 0.24209116 4.3125 0.375 C5.51326172 0.47941406 5.51326172 0.47941406 6.73828125 0.5859375 C9 1 9 1 12 3 C7.48382401 3.07654536 3.40914783 3.10228696 -1 2 C-0.67 1.34 -0.34 0.68 0 0 Z " fill="#110002" transform="translate(107,65)"/>
<path d="M0 0 C3.98175544 2.10148204 6.35039045 4.36905358 9 8 C5.88256767 6.49901406 2.84498177 4.97568178 0 3 C0 2.01 0 1.02 0 0 Z " fill="#E6F1EC" transform="translate(92,195)"/>
<path d="M0 0 C1.49080078 0.16628906 1.49080078 0.16628906 3.01171875 0.3359375 C3.77097656 0.43132813 4.53023437 0.52671875 5.3125 0.625 C5.3125 0.955 5.3125 1.285 5.3125 1.625 C-4.09752278 2.95757403 -4.09752278 2.95757403 -8.6875 1.625 C-5.1388865 -0.74074234 -4.1110475 -0.48365265 0 0 Z " fill="#430007" transform="translate(91.6875,61.375)"/>
<path d="M0 0 C2.475 0.495 2.475 0.495 5 1 C5 1.66 5 2.32 5 3 C4.360625 3.103125 3.72125 3.20625 3.0625 3.3125 C2.381875 3.539375 1.70125 3.76625 1 4 C0.67 4.99 0.34 5.98 0 7 C0 4.69 0 2.38 0 0 Z " fill="#F31829" transform="translate(162,94)"/>
<path d="M0 0 C0 1.98 0 3.96 0 6 C-0.33 5.01 -0.66 4.02 -1 3 C-2.65 3.33 -4.3 3.66 -6 4 C-6 3.34 -6 2.68 -6 2 C-2.25 0 -2.25 0 0 0 Z " fill="#F8FBF9" transform="translate(80,189)"/>
<path d="M0 0 C2.97 0.33 5.94 0.66 9 1 C9 1.33 9 1.66 9 2 C4.545 2.495 4.545 2.495 0 3 C0 2.01 0 1.02 0 0 Z " fill="#FBBFC5" transform="translate(147,89)"/>
<path d="M0 0 C0.66 0.33 1.32 0.66 2 1 C1.319375 1.5878125 1.319375 1.5878125 0.625 2.1875 C-1.27642919 4.30832487 -2.06204028 6.33042235 -3 9 C-3.66 7.68 -4.32 6.36 -5 5 C-3.35 3.35 -1.7 1.7 0 0 Z " fill="#03683C" transform="translate(82,5)"/>
<path d="M0 0 C2.31 0 4.62 0 7 0 C4.94766315 2.2477975 3.99332739 3.0022242 1 4 C0.67 2.68 0.34 1.36 0 0 Z " fill="#3F9870" transform="translate(72,188)"/>
</svg>
